<?xml version="1.0" encoding="utf-8"?>
<!-- Generator: Adobe Illustrator 24.0.2, SVG Export Plug-In . SVG Version: 6.00 Build 0)  -->
<svg version="1.1" id="Capa_1" xmlns="http://www.w3.org/2000/svg" xmlns:xlink="http://www.w3.org/1999/xlink" x="0px" y="0px"
	 viewBox="0 0 100 100" style="enable-background:new 0 0 100 100;" xml:space="preserve">
<style type="text/css">
	.st0{fill:#6278F7;}
	.st1{fill:#FFFFFF;}
</style>
<title>toggle-arrowsvg</title>
<rect class="st0" width="100" height="100"/>
<path class="st1" d="M50,25c-13.8,0-25,11.2-25,25c0,0.7,0.6,1.2,1.2,1.2s1.2-0.6,1.2-1.2c0-12.4,10.1-22.5,22.5-22.5
	c7.5,0,14.5,3.7,18.7,10H60c-0.7,0-1.2,0.6-1.2,1.2S59.3,40,60,40h12.5V27.5c0-0.7-0.6-1.2-1.2-1.2S70,26.8,70,27.5V35
	C65.3,28.7,57.9,25,50,25z M73.7,48.7c-0.7,0-1.2,0.6-1.2,1.3c0,0,0,0,0,0c0,12.4-10.1,22.5-22.5,22.5c-7.5,0-14.5-3.7-18.7-10H40
	c0.5,0,0.9-0.2,1.1-0.6c0.4-0.6,0.2-1.4-0.4-1.7C40.5,60.1,40.2,60,40,60H29.3c-0.2,0-0.3,0-0.5,0h-1.3v12.5c0,0.7,0.6,1.2,1.2,1.2
	c0.7,0,1.2-0.6,1.2-1.2V65c8.3,11.1,23.9,13.3,35,5c6.3-4.7,10-12.1,10-20C75,49.3,74.5,48.7,73.7,48.7
	C73.8,48.7,73.7,48.7,73.7,48.7z"/>
</svg>
