<?xml version="1.0" encoding="utf-8"?>
<!-- Generator: Adobe Illustrator 24.0.2, SVG Export Plug-In . SVG Version: 6.00 Build 0)  -->
<svg version="1.1" id="Capa_1" xmlns="http://www.w3.org/2000/svg" xmlns:xlink="http://www.w3.org/1999/xlink" x="0px" y="0px"
	 viewBox="0 0 38.4 37.8" style="enable-background:new 0 0 38.4 37.8;" xml:space="preserve">
<path d="M19.2,0C8.6,0,0,8.6,0,19.2c0,9,6.2,16.5,14.5,18.6c-0.1-0.3-0.1-0.6-0.1-0.9v-3.3c-0.8,0-2.1,0-2.4,0c-1.3,0-2.5-0.6-3-1.6
	c-0.6-1.2-0.7-3-2.3-4c-0.5-0.4-0.1-0.8,0.4-0.7c1,0.3,1.8,1,2.6,2c0.8,1,1.1,1.2,2.6,1.2c0.7,0,1.7,0,2.7-0.2
	c0.5-1.3,1.4-2.6,2.5-3.1C11,26.4,8,23.2,8,18.9c0-1.9,0.8-3.7,2.1-5.2c-0.4-1.5-1-4.6,0.2-5.7c2.9,0,4.6,1.9,5,2.4
	c1.4-0.5,3-0.8,4.7-0.8c1.7,0,3.2,0.3,4.7,0.8c0.4-0.5,2.2-2.4,5-2.4c1.2,1.2,0.6,4.2,0.2,5.8c1.3,1.5,2.1,3.3,2.1,5.2
	c0,4.3-3,7.5-9.4,8.2c1.8,0.9,3,3.5,3,5.4v4.4c0,0.2,0,0.3-0.1,0.4c7.5-2.6,12.9-9.7,12.9-18.1C38.4,8.6,29.8,0,19.2,0z"/>
</svg>
