<?xml version="1.0" encoding="utf-8"?>
<!-- Generator: Adobe Illustrator 24.0.2, SVG Export Plug-In . SVG Version: 6.00 Build 0)  -->
<svg version="1.1" id="Capa_1" xmlns="http://www.w3.org/2000/svg" xmlns:xlink="http://www.w3.org/1999/xlink" x="0px" y="0px"
	 viewBox="0 0 36 36" style="enable-background:new 0 0 36 36;" xml:space="preserve">
<style type="text/css">
	.st0{fill:#0288D1;}
	.st1{fill:#FFFFFF;}
</style>
<path class="st0" d="M36,31c0,2.8-2.2,5-5,5H5c-2.8,0-5-2.2-5-5V5c0-2.8,2.2-5,5-5h26c2.8,0,5,2.2,5,5V31z"/>
<path class="st1" d="M6,13h5v17H6V13z M8.5,11L8.5,11C7,11,6,9.9,6,8.5C6,7.1,7,6,8.5,6C10,6,11,7.1,11,8.5C11,9.9,10,11,8.5,11z
	 M30,30h-5v-9.1c0-2.2-1.2-3.7-3.2-3.7c-1.5,0-2.3,1-2.7,2C19,19.5,19,20.5,19,21v9h-5V13h5v2.6c0.7-1.1,1.9-2.6,4.7-2.6
	c3.6,0,6.3,2.3,6.3,7.3L30,30L30,30z"/>
</svg>
