<?xml version="1.0" encoding="utf-8"?>
<!-- Generator: Adobe Illustrator 24.0.2, SVG Export Plug-In . SVG Version: 6.00 Build 0)  -->
<svg version="1.1" id="Capa_1" xmlns="http://www.w3.org/2000/svg" xmlns:xlink="http://www.w3.org/1999/xlink" x="0px" y="0px"
	 viewBox="0 0 95.9 62" style="enable-background:new 0 0 95.9 62;" xml:space="preserve">
<style type="text/css">
	.st0{fill:#FFFFFF;}
</style>
<path class="st0" d="M51.1,39.8c-1.7,0-3.2-0.4-4.6-1.1c-1.4-0.8-2.4-1.8-3.2-3.2c-0.8-1.3-1.2-2.9-1.2-4.6s0.4-3.2,1.2-4.6
	c0.8-1.3,1.8-2.4,3.2-3.1s2.9-1.1,4.6-1.1c1.7,0,3.2,0.4,4.6,1.1c1.4,0.7,2.4,1.8,3.2,3.1c0.8,1.3,1.2,2.9,1.2,4.6
	c0,1.7-0.4,3.2-1.2,4.6c-0.8,1.3-1.8,2.4-3.2,3.1C54.3,39.4,52.8,39.8,51.1,39.8z M51.1,37.1c1.1,0,2.1-0.2,3-0.7
	c0.9-0.5,1.6-1.2,2.1-2.1c0.5-0.9,0.7-2,0.7-3.2c0-1.2-0.2-2.3-0.7-3.2c-0.5-0.9-1.2-1.6-2.1-2.1c-0.9-0.5-1.9-0.7-3-0.7
	c-1.1,0-2.1,0.2-3,0.7c-0.9,0.5-1.6,1.2-2.1,2.1c-0.5,0.9-0.8,2-0.8,3.2c0,1.2,0.3,2.3,0.8,3.2c0.5,0.9,1.2,1.6,2.1,2.1
	C49,36.8,50,37.1,51.1,37.1z"/>
<path class="st0" d="M65.4,39.6V22.3h3V27l-0.3-1.2c0.5-1.2,1.3-2.1,2.4-2.7c1.1-0.6,2.5-0.9,4.2-0.9v3c-0.1,0-0.3,0-0.4,0H74
	c-1.7,0-3,0.5-4,1.5c-1,1-1.5,2.4-1.5,4.3v8.6L65.4,39.6L65.4,39.6z"/>
<path class="st0" d="M86.6,38.9c-1.7,0-3.2-0.4-4.5-1.1c-1.3-0.7-2.4-1.7-3.1-3c-0.8-1.3-1.2-2.7-1.2-4.4s0.4-3.1,1.2-4.4
	c0.8-1.3,1.8-2.2,3.1-2.9c1.3-0.7,2.8-1,4.5-1c1.5,0,2.8,0.3,4,0.9c1.2,0.6,2.2,1.5,2.9,2.8c0.7,1.2,1.1,2.8,1.1,4.7
	c0,1.9-0.4,3.4-1.1,4.7c-0.7,1.2-1.7,2.2-2.9,2.8C89.4,38.6,88,38.9,86.6,38.9L86.6,38.9z M87,46.2c-1.6,0-3.1-0.2-4.6-0.7
	c-1.5-0.4-2.7-1.1-3.6-1.9l1.5-2.4c0.8,0.7,1.8,1.2,3,1.7c1.2,0.4,2.4,0.6,3.7,0.6c2,0,3.5-0.5,4.5-1.4c1-1,1.4-2.4,1.4-4.4v-3.7
	l0.3-3.4l-0.2-3.5v-4.7h3v15c0,3.1-0.8,5.3-2.3,6.7C92.1,45.4,89.9,46.2,87,46.2L87,46.2z M86.9,36.2c1.1,0,2.2-0.2,3.1-0.7
	c0.9-0.5,1.6-1.1,2.1-2c0.5-0.9,0.8-1.8,0.8-2.9s-0.3-2.1-0.8-2.9c-0.5-0.9-1.2-1.5-2.1-2c-0.9-0.5-1.9-0.7-3.1-0.7
	c-1.1,0-2.2,0.2-3.1,0.7c-0.9,0.5-1.6,1.1-2.1,2c-0.5,0.9-0.8,1.8-0.8,2.9s0.3,2.1,0.8,2.9c0.5,0.9,1.2,1.5,2.1,2
	C84.7,35.9,85.8,36.2,86.9,36.2z"/>
<path class="st0" d="M5.2,12c0.2,0.4,0.7,0.7,1.1,0.7c0.5,0,0.9-0.3,1.1-0.7l5.1-10.2c0.2-0.4,0.2-0.9-0.1-1.2
	C12.3,0.2,11.9,0,11.4,0H1.3C0.8,0,0.4,0.2,0.2,0.6C0,1-0.1,1.4,0.1,1.8L5.2,12z M9.4,2.5l-3,6.1l-3-6.1H9.4z M6.4,37.4
	c1.7,0,3.3-0.7,4.5-1.9c1.2-1.2,1.9-2.8,1.9-4.5c0-1.7-0.7-3.3-1.9-4.5c-1.2-1.2-2.8-1.9-4.5-1.9c-1.7,0-3.3,0.7-4.5,1.9
	C0.7,27.7,0,29.3,0,31c0,1.7,0.7,3.3,1.9,4.5C3.1,36.7,4.7,37.4,6.4,37.4z M6.4,27.2c1,0,2,0.4,2.7,1.1C9.8,29,10.2,30,10.2,31
	s-0.4,2-1.1,2.7c-0.7,0.7-1.7,1.1-2.7,1.1s-2-0.4-2.7-1.1C2.9,33,2.5,32,2.5,31s0.4-2,1.1-2.7C4.4,27.6,5.3,27.2,6.4,27.2z M1.3,62
	h10.2c0.7,0,1.3-0.6,1.3-1.3V50.5c0-0.7-0.6-1.3-1.3-1.3H1.3c-0.7,0-1.3,0.6-1.3,1.3v10.2C0,61.4,0.6,62,1.3,62z M2.5,51.8h7.6v7.6
	H2.5V51.8z M22.9,54.4V32.3h-7.2c-0.7,0-1.3-0.6-1.3-1.3s0.6-1.3,1.3-1.3h7.2V7.6h-7.2c-0.7,0-1.3-0.6-1.3-1.3s0.6-1.3,1.3-1.3h8.5
	c0.7,0,1.3,0.6,1.3,1.3v23.4h7.2c0.7,0,1.3,0.6,1.3,1.3s-0.6,1.3-1.3,1.3h-7.2v23.4c0,0.7-0.6,1.3-1.3,1.3h-8.5
	c-0.7,0-1.3-0.6-1.3-1.3c0-0.7,0.6-1.3,1.3-1.3H22.9z"/>
</svg>
