<?xml version="1.0" encoding="utf-8"?>
<!-- Generator: Adobe Illustrator 24.0.2, SVG Export Plug-In . SVG Version: 6.00 Build 0)  -->
<svg version="1.1" id="Capa_1" xmlns="http://www.w3.org/2000/svg" xmlns:xlink="http://www.w3.org/1999/xlink" x="0px" y="0px"
	 viewBox="0 0 44.3 44.3" style="enable-background:new 0 0 44.3 44.3;" xml:space="preserve">
<path d="M22.2,0C9.9,0,0,9.9,0,22.2s9.9,22.2,22.2,22.2s22.2-9.9,22.2-22.2S34.4,0,22.2,0z M21.2,2v9.5c-2.5-0.1-4.8-0.3-7-0.8
	c0.4-1.2,0.8-2.2,1.3-3.2C17.1,4.4,19.1,2.5,21.2,2z M23.1,2c2.1,0.5,4.1,2.4,5.7,5.6c0.5,1,0.9,2,1.3,3.2c-2.2,0.4-4.5,0.7-7,0.8V2
	z M16.6,2.7c-1,1.1-2,2.5-2.8,4c-0.5,1.1-1,2.3-1.4,3.6c-1.9-0.5-3.6-1.1-5.1-1.9C9.8,5.8,13,3.7,16.6,2.7z M27.8,2.7
	c3.6,1,6.8,3.1,9.3,5.7c-1.4,0.8-3.2,1.4-5,1.9c-0.4-1.3-0.9-2.5-1.5-3.6C29.7,5.2,28.8,3.8,27.8,2.7z M38.3,9.9
	c2.4,3.2,3.9,7,4.1,11.3h-8.7c-0.1-3.2-0.5-6.3-1.2-9C34.7,11.6,36.6,10.9,38.3,9.9z M6,10c1.7,0.9,3.6,1.7,5.8,2.2
	c-0.7,2.7-1.1,5.8-1.2,9H1.9C2.1,17,3.6,13.1,6,10z M13.7,12.6c2.3,0.5,4.9,0.8,7.5,0.9v7.7h-8.7C12.6,18.1,13,15.2,13.7,12.6z
	 M30.6,12.7c0.7,2.6,1.1,5.5,1.1,8.5h-8.7v-7.7C25.8,13.4,28.3,13.1,30.6,12.7z M1.9,23.1h8.7c0.1,3.2,0.5,6.3,1.2,9
	c-2.2,0.6-4.1,1.3-5.8,2.3C3.6,31.2,2.1,27.3,1.9,23.1z M12.5,23.1h8.7v7.7c-2.7,0.1-5.2,0.3-7.5,0.8C13,29.1,12.6,26.2,12.5,23.1z
	 M23.1,23.1h8.7c-0.1,3.1-0.5,6-1.1,8.6c-2.3-0.5-4.9-0.8-7.5-0.9V23.1z M33.7,23.1h8.7c-0.2,4.2-1.7,8.1-4.1,11.2
	c-1.7-0.9-3.6-1.7-5.8-2.2C33.2,29.4,33.6,26.3,33.7,23.1z M21.2,32.7v9.5c-2.1-0.5-4.1-2.4-5.7-5.6c-0.5-1-0.9-2-1.3-3.2
	C16.4,33.1,18.7,32.8,21.2,32.7z M23.1,32.7c2.5,0.1,4.8,0.3,7,0.8c-0.4,1.2-0.8,2.2-1.3,3.2c-1.6,3.2-3.6,5.1-5.7,5.6V32.7z
	 M12.3,34c0.4,1.3,0.9,2.5,1.5,3.6c0.8,1.6,1.7,2.9,2.8,4c-3.6-1-6.8-3.1-9.3-5.7C8.8,35.1,10.5,34.5,12.3,34z M32,34
	c1.9,0.5,3.6,1.1,5.1,1.9c-2.5,2.7-5.7,4.7-9.3,5.7c1-1.1,2-2.5,2.8-4C31.1,36.5,31.5,35.3,32,34z"/>
</svg>
